<svg width="64" height="64" viewBox="0 0 64 64" fill="none" xmlns="http://www.w3.org/2000/svg">
  <rect x="8" y="8" width="48" height="48" rx="16" fill="#9FE870" fill-opacity="0.18"/>
  <path d="M30 19V40.5C28.5 39.5 26.5 39 24.5 39C19.8 39 16 41.9 16 45.5C16 49.1 19.8 52 24.5 52C29.2 52 33 49.1 33 45.5V28.5L48 25V35.5C46.5 34.5 44.5 34 42.5 34C37.8 34 34 36.9 34 40.5C34 44.1 37.8 47 42.5 47C47.2 47 51 44.1 51 40.5V16L30 19Z" fill="#243042"/>
  <path d="M43 10L44.6 13.4L48 15L44.6 16.6L43 20L41.4 16.6L38 15L41.4 13.4L43 10Z" fill="#9FE870"/>
</svg>